/vscmnt/brussel_pixiu_data/_data_brussel/112/vsc11236/PredSimResults/SUBJ11mtu3D/worker1.mot
version=1
nRows=4
nColumns=50
inDegrees=yes
endheader
                time	         pelvis_tilt	         pelvis_list	     pelvis_rotation	           pelvis_tx	           pelvis_ty	           pelvis_tz	       hip_flexion_r	     hip_adduction_r	      hip_rotation_r	        knee_angle_r	       ankle_angle_r	         mtp_angle_r	       hip_flexion_l	     hip_adduction_l	      hip_rotation_l	        knee_angle_l	       ankle_angle_l	         mtp_angle_l	    lumbar_extension	      lumbar_bending	     lumbar_rotation	 ercspn_r/activation	 intobl_r/activation	 extobl_r/activation	    abd_r/activation	    add_r/activation	hamstrings_r/activation	bifemsh_r/activation	glut_max_r/activation	iliopsoas_r/activation	rect_fem_r/activation	  vasti_r/activation	gastroc_r/activation	 soleus_r/activation	tib_ant_r/activation	 ercspn_l/activation	 intobl_l/activation	 extobl_l/activation	    abd_l/activation	    add_l/activation	hamstrings_l/activation	bifemsh_l/activation	glut_max_l/activation	iliopsoas_l/activation	rect_fem_l/activation	  vasti_l/activation	gastroc_l/activation	 soleus_l/activation	tib_ant_l/activation	
          1.07760813	        -19.39302681	         -6.86188354	          0.19702953	          1.18536894	          1.02948854	         -0.01394132	         42.41018432	          7.30086281	         20.04827925	         -9.61941117	        -43.73385228	          0.54032621	          1.42327225	         -7.43524199	         18.70015031	          0.90382634	        -45.94933814	         60.16056892	         -2.21534493	         10.27485658	          0.04175369	          0.16063212	          0.01000006	          0.01179599	          0.05629204	          0.13407059	          0.05544272	          0.01000024	          0.15634904	          0.01108768	          0.14881820	          0.07259359	          0.01000000	          0.01000009	          0.54544126	          0.13474664	          0.01000004	          0.01000001	          0.14364328	          0.09824581	          0.01348831	          0.01037965	          0.10182530	          0.01000007	          0.08138864	          0.03748701	          0.01000359	          0.01206145	          0.14417405	
          1.08838421	        -19.42032495	         -7.07577034	          0.42596656	          1.20097648	          1.02581704	         -0.01368131	         40.94613996	          7.00568806	         20.86101634	         -8.75036351	        -42.59006503	          1.17752429	          0.86622758	         -7.51590079	         18.20965210	          0.08883355	        -44.97501025	         60.16056881	         -1.60498693	         10.57425634	          0.08672021	          0.13617495	          0.01000001	          0.01000003	          0.10465801	          0.14599965	          0.04700124	          0.01000003	          0.26537570	          0.01000000	          0.12615990	          0.17835725	          0.01000008	          0.01936237	          0.46239458	          0.17551554	          0.01000001	          0.01000001	          0.19845964	          0.10573752	          0.04178081	          0.01000031	          0.08632180	          0.01179633	          0.06899679	          0.03177947	          0.01000027	          0.01023073	          0.15368390	
          1.09916029	        -19.44083966	         -7.31191262	          0.66624364	          1.21670347	          1.02202499	         -0.01328116	         39.58979585	          6.91839009	         21.73047344	         -8.87257676	        -40.05543025	          3.20388038	          0.50304755	         -7.57603067	         17.74367348	         -1.11751438	        -43.88712773	         60.15461664	         -0.96680213	         10.87709043	          0.12415488	          0.11544152	          0.01000048	          0.01000005	          0.14099051	          0.14992671	          0.03984504	          0.01000005	          0.25093625	          0.01000000	          0.10695144	          0.15120167	          0.01641362	          0.01641450	          0.39199225	          0.17134835	          0.01000002	          0.01000004	          0.22905124	          0.08963837	          0.04526507	          0.01000063	          0.07317879	          0.01000033	          0.05849166	          0.02694092	          0.01000008	          0.01000107	          0.16268054	
          1.10993637	        -19.45794780	         -7.58468308	          0.89202696	          1.23242901	          1.01823322	         -0.01284114	         38.25312949	          6.85982708	         22.54068629	         -9.24821969	        -37.39198054	          6.81257720	          0.35973032	         -7.62589382	         17.28999091	         -2.71230156	        -42.79211535	         60.16024256	         -0.32138610	         11.21642024	          0.18444734	          0.09786489	          0.01000003	          0.01000003	          0.14496279	          0.14450229	          0.03861894	          0.01000012	          0.25164702	          0.01000001	          0.09066758	          0.12818037	          0.01391456	          0.01391532	          0.33230909	          0.17492451	          0.01000002	          0.01000002	          0.24894045	          0.09864400	          0.06004815	          0.01000035	          0.06203688	          0.01000010	          0.04958599	          0.02283905	          0.01000005	          0.01000059	          0.16176610	
